<svg width="30" height="15" viewBox="0 0 30 15" fill="none" xmlns="http://www.w3.org/2000/svg">
<g opacity="0.35">
<path d="M24.298 0.880005H2.667C1.4702 0.880005 0.5 1.8502 0.5 3.047V12.061C0.5 13.2578 1.4702 14.228 2.667 14.228H24.298C25.4948 14.228 26.465 13.2578 26.465 12.061V3.047C26.465 1.8502 25.4948 0.880005 24.298 0.880005Z" stroke="white" stroke-miterlimit="10"/>
</g>
<path opacity="0.4" d="M27.965 5.55396V9.55396C28.3586 9.38825 28.6945 9.1101 28.9308 8.75433C29.167 8.39857 29.293 7.98101 29.293 7.55396C29.293 7.1269 29.167 6.70934 28.9308 6.35358C28.6945 5.99781 28.3586 5.71966 27.965 5.55396" fill="white"/>
<path d="M18.667 2.38H3.333C2.5968 2.38 2 2.97681 2 3.713V11.395C2 12.1312 2.5968 12.728 3.333 12.728H18.667C19.4032 12.728 20 12.1312 20 11.395V3.713C20 2.97681 19.4032 2.38 18.667 2.38Z" fill="white"/>
</svg>
