<svg width="20" height="15" viewBox="0 0 20 15" fill="none" xmlns="http://www.w3.org/2000/svg">
<path d="M9.711 14.607L7.094 11.969C7.05388 11.9302 7.02229 11.8835 7.00128 11.8319C6.98027 11.7802 6.9703 11.7247 6.972 11.669C6.97251 11.6123 6.98477 11.5564 7.00801 11.5048C7.03125 11.4531 7.06496 11.4069 7.107 11.369C7.91603 10.6851 8.94114 10.3098 10.0005 10.3098C11.0599 10.3098 12.085 10.6851 12.894 11.369C12.936 11.4065 12.9697 11.4523 12.9932 11.5034C13.0167 11.5546 13.0295 11.6101 13.0306 11.6663C13.0317 11.7226 13.0212 11.7786 12.9998 11.8306C12.9784 11.8827 12.9464 11.9298 12.906 11.969L10.291 14.607C10.2531 14.6453 10.2079 14.6757 10.1581 14.6965C10.1083 14.7173 10.0549 14.728 10.001 14.728C9.94707 14.728 9.89366 14.7173 9.84389 14.6965C9.79411 14.6757 9.74894 14.6453 9.711 14.607ZM14.311 9.98795C13.1292 8.91872 11.5922 8.32666 9.9985 8.32666C8.40476 8.32666 6.86785 8.91872 5.686 9.98795C5.60933 10.0597 5.50786 10.0989 5.40289 10.0974C5.29792 10.0959 5.1976 10.0538 5.123 9.97995L3.611 8.45295C3.57148 8.41345 3.54024 8.36646 3.5191 8.31473C3.49797 8.263 3.48737 8.20757 3.48793 8.15169C3.48849 8.09582 3.50019 8.04061 3.52236 7.98932C3.54452 7.93802 3.5767 7.89166 3.617 7.85295C5.35252 6.2407 7.63367 5.34462 10.0025 5.34462C12.3713 5.34462 14.6525 6.2407 16.388 7.85295C16.4283 7.89166 16.4605 7.93802 16.4826 7.98932C16.5048 8.04061 16.5165 8.09582 16.5171 8.15169C16.5176 8.20757 16.507 8.263 16.4859 8.31473C16.4648 8.36646 16.4335 8.41345 16.394 8.45295L14.882 9.97995C14.8071 10.0549 14.7059 10.0975 14.5999 10.0988C14.494 10.1001 14.3917 10.06 14.315 9.98695L14.311 9.98795ZM17.8 6.47195C15.696 4.47386 12.9051 3.35984 10.0035 3.35984C7.1019 3.35984 4.31104 4.47386 2.207 6.47195C2.16984 6.50929 2.12566 6.53893 2.07701 6.55914C2.02835 6.57936 1.97619 6.58977 1.9235 6.58977C1.87082 6.58977 1.81865 6.57936 1.77 6.55914C1.72135 6.53893 1.67717 6.50929 1.64 6.47195L0.122003 4.94095C0.082213 4.90178 0.0506139 4.85508 0.0290451 4.80358C0.00747619 4.75207 -0.00363159 4.69679 -0.00363159 4.64095C-0.00363159 4.58512 0.00747619 4.52984 0.0290451 4.47833C0.0506139 4.42683 0.082213 4.38013 0.122003 4.34095C2.77976 1.79652 6.31712 0.376221 9.9965 0.376221C13.6759 0.376221 17.2132 1.79652 19.871 4.34095C19.9108 4.38013 19.9424 4.42683 19.964 4.47833C19.9855 4.52984 19.9966 4.58512 19.9966 4.64095C19.9966 4.69679 19.9855 4.75207 19.964 4.80358C19.9424 4.85508 19.9108 4.90178 19.871 4.94095L18.364 6.46695C18.3268 6.50429 18.2827 6.53393 18.234 6.55414C18.1854 6.57436 18.1332 6.58477 18.0805 6.58477C18.0278 6.58477 17.9756 6.57436 17.927 6.55414C17.8783 6.53393 17.8342 6.50429 17.797 6.46695L17.8 6.47195Z" fill="white"/>
</svg>
