<svg xmlns="http://www.w3.org/2000/svg" width="38.623655955327536" height="17.84946238213101" fill="none"><rect id="backgroundrect" width="100%" height="100%" x="0" y="0" fill="none" stroke="none" style="" class=""/>




<defs>
<filter id="filter0_d_5_2285" x="0.5" y="0.01000980008393526" width="49.5" height="29" filterUnits="userSpaceOnUse" color-interpolation-filters="sRGB">
<feFlood flood-opacity="0" result="BackgroundImageFix"/>
<feColorMatrix in="SourceAlpha" type="matrix" values="0 0 0 0 0 0 0 0 0 0 0 0 0 0 0 0 0 0 127 0" result="hardAlpha"/>
<feOffset dy="3"/>
<feGaussianBlur stdDeviation="3"/>
<feColorMatrix type="matrix" values="0 0 0 0 0 0 0 0 0 0 0 0 0 0 0 0 0 0 0.161 0"/>
<feBlend mode="normal" in2="BackgroundImageFix" result="effect1_dropShadow_5_2285"/>
<feBlend mode="normal" in="SourceGraphic" in2="effect1_dropShadow_5_2285" result="shape"/>
</filter>
</defs>
<g class="currentLayer" style=""><title>Layer 1</title><g filter="url(#filter0_d_5_2285)" id="svg_1" class="">
<path d="M6.086021542549133,0.3218378980255126 H36.08602154254913 C36.61592154254913,0.3234178980255128 37.123721542549134,0.5346378980255126 37.498521542549135,0.9093678980255127 C37.87322154254913,1.2840978980255127 38.08442154254913,1.7918878980255126 38.08602154254913,2.321837898025513 L34.58602154254913,15.321827898025514 C34.286021542549136,16.421827898025512 33.686021542549135,17.321827898025514 32.58602154254913,17.321827898025514 H2.5860215425491333 C2.056071542549133,17.320227898025514 1.5482915425491337,17.109027898025513 1.1735515425491334,16.734327898025512 C0.798821542549133,16.35952789802551 0.587601542549133,15.851827898025512 0.5860215425491333,15.321827898025514 L4.086021542549133,2.321837898025513 C4.386021542549134,1.2218378980255125 4.986021542549134,0.3218378980255126 6.086021542549133,0.3218378980255126 z" fill="#A60000" id="svg_2"/>
</g><path d="M6.286021542549133,9.521827898025514 C6.319621542549132,8.082927898025513 6.9129215425491335,6.713797898025513 7.939921542549133,5.705437898025513 C8.967021542549134,4.697077898025514 10.346721542549133,4.128957898025512 11.786021542549133,4.1217978980255126 C12.503021542549135,4.075127898025513 13.218921542549133,4.2279578980255135 13.854421542549133,4.563327898025513 C14.489821542549134,4.8987078980255125 15.020021542549134,5.4035178980255125 15.386021542549134,6.021797898025513 L13.686021542549135,7.221797898025512 C13.474621542549134,6.830477898025514 13.154321542549134,6.508847898025513 12.763821542549135,6.295867898025513 C12.373321542549132,6.082877898025513 11.929521542549132,5.987687898025513 11.486021542549132,6.021797898025513 C10.604321542549133,6.080087898025512 9.779121542549133,6.476727898025512 9.182821542549133,7.128907898025513 C8.586621542549134,7.781127898025513 8.265321542549133,8.638327898025512 8.286021542549133,9.521827898025514 C8.271721542549134,9.814527898025514 8.318821542549133,10.106927898025512 8.424321542549134,10.380327898025513 C8.529821542549133,10.653727898025513 8.691421542549133,10.902027898025512 8.898621542549133,11.109227898025512 C9.105821542549133,11.316427898025513 9.354121542549134,11.478027898025513 9.627521542549133,11.583527898025512 C9.900921542549133,11.689027898025513 10.193321542549132,11.736127898025513 10.486021542549132,11.721827898025513 C11.274721542549134,11.698327898025513 12.025121542549133,11.376727898025512 12.586021542549133,10.821827898025512 L13.886021542549134,12.221827898025513 C12.981921542549134,13.118927898025513 11.759721542549133,13.622227898025514 10.486021542549132,13.621827898025511 C9.938521542549132,13.638027898025513 9.393321542549133,13.543827898025512 8.883021542549134,13.344827898025514 C8.372621542549133,13.145827898025512 7.907621542549133,12.846027898025513 7.515621542549134,12.463427898025513 C7.123621542549133,12.080827898025513 6.812821542549134,11.623127898025512 6.601521542549133,11.117727898025512 C6.390321542549133,10.612327898025512 6.2830215425491325,10.069527898025513 6.286021542549133,9.521827898025514 z" fill="white" id="svg_3" class=""/><path d="M18.886021542549134,6.021857898025512 H16.086021542549133 L16.586021542549133,4.221857898025513 H24.086021542549133 L23.586021542549133,6.021857898025512 H20.786021542549133 L18.886021542549134,13.321827898025514 H16.886021542549134 L18.886021542549134,6.021857898025512 z" fill="white" id="svg_4" class=""/><path d="M27.486021542549132,4.121887898025513 H29.38602154254913 L30.786021542549136,13.321927898025514 H28.686021542549135 L28.38602154254913,11.321927898025512 H24.586021542549133 L23.186021542549135,13.321927898025514 H20.986021542549132 L27.486021542549132,4.121887898025513 zM28.286021542549136,9.521927898025513 L27.88602154254913,6.521887898025513 L25.886021542549134,9.521927898025513 H28.286021542549136 z" fill="white" id="svg_5" class=""/></g></svg>