<svg width="11" height="7" viewBox="0 0 11 7" fill="none" xmlns="http://www.w3.org/2000/svg">
<path d="M0.674974 1.495L5.30597 6.125C5.35969 6.17907 5.42357 6.22197 5.49394 6.25124C5.5643 6.28052 5.63976 6.29559 5.71597 6.29559C5.79219 6.29559 5.86765 6.28052 5.93801 6.25124C6.00838 6.22197 6.07226 6.17907 6.12597 6.125L10.756 1.495C10.8644 1.38628 10.9252 1.23903 10.9252 1.0855C10.9252 0.931983 10.8644 0.784725 10.756 0.676004C10.6448 0.571958 10.4982 0.514068 10.346 0.514068C10.1937 0.514068 10.0471 0.571958 9.93597 0.676004L5.71497 4.895L1.49397 0.675004C1.4402 0.621228 1.37636 0.57857 1.3061 0.549467C1.23583 0.520363 1.16053 0.505384 1.08447 0.505384C1.00842 0.505384 0.933117 0.520363 0.862855 0.549467C0.792593 0.57857 0.728751 0.621228 0.674974 0.675004C0.621198 0.728781 0.578541 0.792623 0.549438 0.862885C0.520334 0.933146 0.505354 1.00845 0.505354 1.0845C0.505354 1.16056 0.520334 1.23586 0.549438 1.30612C0.578541 1.37639 0.621198 1.44023 0.674974 1.494" fill="white"/>
</svg>
