<svg width="21" height="21" xmlns="http://www.w3.org/2000/svg" fill="none">
  <path id="svg_1" fill="#919191" d="m10.41904,0.00098c-2.061,0 -4.075,0.61106 -5.788,1.75591c-1.714,1.14486 -3.049,2.77208 -3.838,4.67591c-0.788,1.90382 -0.995,3.9987 -0.593,6.0198c0.402,2.0211 1.395,3.8776 2.852,5.3347c1.457,1.4571 3.313,2.4495 5.334,2.8515c2.021,0.402 4.116,0.1957 6.02,-0.5929c1.904,-0.7886 3.531,-2.124 4.676,-3.8374c1.145,-1.7134 1.756,-3.7278 1.756,-5.7885c0,-2.76331 -1.098,-5.41343 -3.052,-7.36737c-1.954,-1.95394 -4.604,-3.05165 -7.367,-3.05165m-0.719,5.16c0.117,-0.11653 0.256,-0.20855 0.41,-0.2707c0.153,-0.06216 0.317,-0.09319 0.482,-0.0913c0.332,0.00131 0.65,0.13389 0.885,0.3688c0.235,0.23492 0.367,0.55311 0.368,0.8852c0.002,0.16521 -0.029,0.32919 -0.091,0.48235c-0.062,0.15316 -0.154,0.29242 -0.27,0.40965c-0.114,0.12167 -0.252,0.21802 -0.406,0.28279c-0.154,0.06478 -0.319,0.09653 -0.486,0.09321c-0.17,0.00273 -0.338,-0.03139 -0.494,-0.1c-0.3,-0.13208 -0.539,-0.37138 -0.672,-0.671c-0.101,-0.23188 -0.129,-0.48914 -0.08,-0.73737c0.049,-0.24823 0.172,-0.47558 0.354,-0.65163zm3.253,10.88002l-4.572,0l0,-0.84c0.845,0 1.268,-0.2214 1.268,-0.664l0,-4.486c0,-0.45202 -0.423,-0.67802 -1.268,-0.67802l0,-0.841l3.289,0l0,6.00002c-0.019,0.4426 0.409,0.664 1.284,0.664l-0.001,0.845z"/>
</svg>